<svg width="130" height="138" viewBox="0 0 130 138" version="1.1" xmlns="http://www.w3.org/2000/svg" xmlns:xlink="http://www.w3.org/1999/xlink" xmlns:figma="http://www.figma.com/figma/ns">
<title>Tt</title>
<desc>Created using Figma</desc>
<g id="Canvas" transform="translate(-3521 -297)" figma:type="canvas">
<g id="Tt" figma:type="frame">
<g id="Group" figma:type="frame">
<g id="Vector 2" figma:type="vector">
<use xlink:href="#path0_fill" transform="translate(3521.26 297.527)" fill="#4522FF"/>
</g>
</g>
<g id="Group" figma:type="frame">
<g id="Component" figma:type="symbol">
<g id="Vector 2" figma:type="vector">
<use xlink:href="#path1_fill" transform="translate(3545.01 327.062)" fill="#FFFFFF"/>
</g>
<g id="Vector 2" figma:type="vector">
<use xlink:href="#path2_stroke" transform="translate(3545.01 327)"/>
</g>
<g id="Vector" figma:type="vector">
<use xlink:href="#path3_fill" transform="translate(3559.96 338.352)" fill="#4522FF"/>
</g>
<g id="Vector" figma:type="vector">
<use xlink:href="#path4_fill" transform="translate(3589.26 364.356)" fill="#FFFFFF"/>
</g>
</g>
<g id="Vector" figma:type="vector">
<use xlink:href="#path5_stroke" transform="translate(3589.26 364.23)"/>
</g>
</g>
</g>
</g>
<defs>
<path id="path0_fill" d="M 54.5 136.5L 28 136.5L 24 131.737L 28 126.973L 24 122.473L 28 117.723L 24 112.973L 28 108.21L 24 103.71L 28 98.9602L 25 94.2102L 25 29.5L 0 29.5L 0 0L 82 0L 82 29.5L 57.5 29.5L 57.5 94.2102L 54.5 98.9602L 58.5 103.71L 54.5 108.21L 58.5 112.973L 54.5 117.723L 58.5 122.473L 54.5 126.973L 58.5 131.737L 54.5 136.5Z"/>
<path id="path1_fill" d="M 30.5 105.39L 4 105.39L 0 100.627L 4 95.8638L 0 91.3638L 4 86.6138L 0 81.8638L 4 77.1006L 0 72.6006L 4 67.8506L 1 63.1006L 0.930176 0L 33.4302 0L 33.5 63.1006L 30.5 67.8506L 34.5 72.6006L 30.5 77.1006L 34.5 81.8638L 30.5 86.6138L 34.5 91.3638L 30.5 95.8638L 34.5 100.627L 30.5 105.39Z"/>
<path id="path2_stroke" d="M 4 105.453L 2.85131 106.417L 3.30089 106.953L 4 106.953L 4 105.453ZM 30.5 105.453L 30.5 106.953L 31.1991 106.953L 31.6487 106.417L 30.5 105.453ZM 4 95.9263L 5.14869 96.891L 5.98216 95.8985L 5.12111 94.9298L 4 95.9263ZM 30.5 95.9263L 29.3789 94.9298L 28.5178 95.8985L 29.3513 96.891L 30.5 95.9263ZM 34.5 100.69L 35.6487 101.654L 36.4587 100.69L 35.6487 99.725L 34.5 100.69ZM 0 100.69L -1.14869 99.725L -1.95875 100.69L -1.14869 101.654L 0 100.69ZM 34.5 91.4263L 35.6211 92.4229L 36.4834 91.4529L 35.6474 90.4601L 34.5 91.4263ZM 0 91.4263L -1.14737 90.4601L -1.98335 91.4529L -1.12111 92.4229L 0 91.4263ZM 4 86.6763L 5.14737 87.6425L 5.96101 86.6763L 5.14737 85.7101L 4 86.6763ZM 30.5 86.6763L 29.3526 85.7101L 28.539 86.6763L 29.3526 87.6425L 30.5 86.6763ZM 0 81.9263L -1.14869 80.9617L -1.95988 81.9277L -1.14737 82.8925L 0 81.9263ZM 34.5 81.9263L 35.6474 82.8925L 36.4599 81.9277L 35.6487 80.9617L 34.5 81.9263ZM 4 77.1631L 5.14869 78.1277L 5.98216 77.1352L 5.12111 76.1665L 4 77.1631ZM 30.5 77.1631L 29.3789 76.1665L 28.5178 77.1352L 29.3513 78.1277L 30.5 77.1631ZM 34.5 72.6631L 35.6211 73.6596L 36.4834 72.6896L 35.6474 71.6969L 34.5 72.6631ZM 0 72.6631L -1.14737 71.6969L -1.98335 72.6896L -1.12111 73.6596L 0 72.6631ZM 4 67.9131L 5.14737 68.8793L 5.85422 68.0399L 5.26823 67.1121L 4 67.9131ZM 30.5 67.9131L 29.2318 67.1121L 28.6458 68.0399L 29.3526 68.8793L 30.5 67.9131ZM 1 63.1631L -0.5 63.1632L -0.49995 63.5972L -0.268233 63.9641L 1 63.1631ZM 33.5 63.1631L 34.7682 63.9641L 35.0001 63.597L 35 63.1629L 33.5 63.1631ZM 4 106.953L 30.5 106.953L 30.5 103.953L 4 103.953L 4 106.953ZM 31.6487 106.417L 35.6487 101.654L 33.3513 99.725L 29.3513 104.488L 31.6487 106.417ZM 35.6487 99.725L 31.6487 94.9617L 29.3513 96.891L 33.3513 101.654L 35.6487 99.725ZM 2.85131 94.9617L -1.14869 99.725L 1.14869 101.654L 5.14869 96.891L 2.85131 94.9617ZM -1.14869 101.654L 2.85131 106.417L 5.14869 104.488L 1.14869 99.725L -1.14869 101.654ZM 31.6211 96.9229L 35.6211 92.4229L 33.3789 90.4298L 29.3789 94.9298L 31.6211 96.9229ZM -1.12111 92.4229L 2.87889 96.9229L 5.12111 94.9298L 1.12111 90.4298L -1.12111 92.4229ZM 2.85263 85.7101L -1.14737 90.4601L 1.14737 92.3925L 5.14737 87.6425L 2.85263 85.7101ZM 35.6474 90.4601L 31.6474 85.7101L 29.3526 87.6425L 33.3526 92.3925L 35.6474 90.4601ZM -1.14737 82.8925L 2.85263 87.6425L 5.14737 85.7101L 1.14737 80.9601L -1.14737 82.8925ZM 31.6474 87.6425L 35.6474 82.8925L 33.3526 80.9601L 29.3526 85.7101L 31.6474 87.6425ZM 35.6487 80.9617L 31.6487 76.1984L 29.3513 78.1277L 33.3513 82.891L 35.6487 80.9617ZM 2.85131 76.1984L -1.14869 80.9617L 1.14869 82.891L 5.14869 78.1277L 2.85131 76.1984ZM 31.6211 78.1596L 35.6211 73.6596L 33.3789 71.6665L 29.3789 76.1665L 31.6211 78.1596ZM -1.12111 73.6596L 2.87889 78.1596L 5.12111 76.1665L 1.12111 71.6665L -1.12111 73.6596ZM 2.85263 66.9469L -1.14737 71.6969L 1.14737 73.6293L 5.14737 68.8793L 2.85263 66.9469ZM 35.6474 71.6969L 31.6474 66.9469L 29.3526 68.8793L 33.3526 73.6293L 35.6474 71.6969ZM -0.268233 63.9641L 2.73177 68.7141L 5.26823 67.1121L 2.26823 62.3621L -0.268233 63.9641ZM 31.7682 68.7141L 34.7682 63.9641L 32.2318 62.3621L 29.2318 67.1121L 31.7682 68.7141ZM 2.5 63.1629L 2.49268 -0.000173936L -0.507324 0.000173936L -0.5 63.1632L 2.5 63.1629ZM 31.9927 0.000173936L 32 63.1632L 35 63.1629L 34.9927 -0.000173936L 31.9927 0.000173936Z"/>
<path id="path3_fill" d="M 29.2927 94.1012L 61.2932 94.1012L 61.2932 84.3983L 61.2932 74.1483L 61.2932 26.1087L 90.5862 26.1087C 90.5862 9.14832 78.5359 0 53.7388 0L 53.7388 4.22571L 36.8469 4.22571L 36.8469 3.05176e-05C 14.5359 0 0 9.64832 0 26.1087L 29.2927 26.1087L 29.2927 74.1483L 29.2927 84.3983L 29.2927 94.1012Z"/>
<path id="path4_fill" d="M 0 68.0388L 32.0005 68.0388L 32.0005 58.1291L 32.0005 47.6606L 32.0005 -5.51362e-06L 18.9932 -5.51362e-06L 0 -5.51362e-06L 0 47.6606L 0 58.1291L 0 68.0388Z"/>
<path id="path5_stroke" d="M 32.0005 68.1651L 32.0005 69.6651L 33.5005 69.6651L 33.5005 68.1651L 32.0005 68.1651ZM 0 68.1651L -1.5 68.1651L -1.5 69.6651L 0 69.6651L 0 68.1651ZM 32.0005 66.6651L 0 66.6651L 0 69.6651L 32.0005 69.6651L 32.0005 66.6651ZM 33.5005 68.1651L 33.5005 58.2555L 30.5005 58.2555L 30.5005 68.1651L 33.5005 68.1651ZM 33.5005 58.2555L 33.5005 47.787L 30.5005 47.787L 30.5005 58.2555L 33.5005 58.2555ZM 33.5005 47.787L 33.5005 0L 30.5005 0L 30.5005 47.787L 33.5005 47.787ZM 1.5 68.1651L 1.5 58.2555L -1.5 58.2555L -1.5 68.1651L 1.5 68.1651ZM 1.5 58.2555L 1.5 47.787L -1.5 47.787L -1.5 58.2555L 1.5 58.2555ZM 1.5 47.787L 1.5 -1.3113e-05L -1.5 -1.3113e-05L -1.5 47.787L 1.5 47.787Z"/>
</defs>
</svg>
